HIERARCHY
ROOT Hips
{
	OFFSET 0.000000 0.000000 0.000000 
	CHANNELS 6 Xposition Yposition Zposition Zrotation Yrotation Xrotation
	JOINT LeftUpLeg
	{
		OFFSET 1.363060 -1.794630 0.839290 
		CHANNELS 3 Zrotation Yrotation Xrotation
		JOINT LeftLeg
		{
			OFFSET 2.448110 -6.726130 0.000000 
			CHANNELS 3 Zrotation Yrotation Xrotation
			JOINT LeftFoot
			{
				OFFSET 2.562200 -7.039590 0.000000 
				CHANNELS 3 Zrotation Yrotation Xrotation
				JOINT LeftToeBase
				{
					OFFSET 0.157640 -0.433110 2.322550 
					CHANNELS 3 Zrotation Yrotation Xrotation
					End Site
					{
						OFFSET 0.000000 0.000000 0.000000 
					}
				}
			}
		}
	}
	JOINT RightUpLeg
	{
		OFFSET -1.305520 -1.794630 0.839290 
		CHANNELS 3 Zrotation Yrotation Xrotation
		JOINT RightLeg
		{
			OFFSET -2.542530 -6.985550 0.000000 
			CHANNELS 3 Zrotation Yrotation Xrotation
			JOINT RightFoot
			{
				OFFSET -2.568260 -7.056230 0.000000 
				CHANNELS 3 Zrotation Yrotation Xrotation
				JOINT RightToeBase
				{
					OFFSET -0.164730 -0.452590 2.363150 
					CHANNELS 3 Zrotation Yrotation Xrotation
					End Site
					{
						OFFSET 0.000000 0.000000 0.000000 
					}
				}
			}
		}
	}
	JOINT Spine
	{
		OFFSET 0.028270 2.035590 -0.193380 
		CHANNELS 3 Zrotation Yrotation Xrotation
		JOINT Spine1
		{
			OFFSET 0.056720 2.048850 -0.042750 
			CHANNELS 3 Zrotation Yrotation Xrotation
			JOINT Neck1
			{
				OFFSET -0.054170 1.746240 0.172020 
				CHANNELS 3 Zrotation Yrotation Xrotation
				JOINT Head
				{
					OFFSET 0.104070 1.761360 -0.123970 
					CHANNELS 3 Zrotation Yrotation Xrotation
					End Site
					{
						OFFSET 0.000000 0.000000 0.000000 
					}
				}
			}
			JOINT LeftArm
			{
				OFFSET 3.362410 1.200890 -0.311210 
				CHANNELS 3 Zrotation Yrotation Xrotation
				JOINT LeftForeArm
				{
					OFFSET 4.983000 -0.000000 -0.000000 
					CHANNELS 3 Zrotation Yrotation Xrotation
					JOINT LeftHand
					{
						OFFSET 3.483560 -0.000000 -0.000000 
						CHANNELS 3 Zrotation Yrotation Xrotation
						JOINT LeftHandIndex1
						{
							OFFSET 0.715260 -0.000000 -0.000000 
							CHANNELS 3 Zrotation Yrotation Xrotation
							End Site
							{
								OFFSET 0.000000 0.000000 0.000000 
							}
						}
					}
				}
			}
			JOINT RightArm
			{
				OFFSET -3.136600 1.374050 -0.404650 
				CHANNELS 3 Zrotation Yrotation Xrotation
				JOINT RightForeArm
				{
					OFFSET -5.241900 -0.000000 -0.000000 
					CHANNELS 3 Zrotation Yrotation Xrotation
					JOINT RightHand
					{
						OFFSET -3.444170 -0.000000 -0.000000 
						CHANNELS 3 Zrotation Yrotation Xrotation
						JOINT RightHandIndex1
						{
							OFFSET -0.622530 -0.000000 -0.000000 
							CHANNELS 3 Zrotation Yrotation Xrotation
							End Site
							{
								OFFSET 0.000000 0.000000 0.000000 
							}
						}
					}
				}
			}
		}
	}
}
MOTION
Frames: 9
Frame Time: 0.041667
-0.384626 18.443175 8.326785 -9.530749 -4.006916 9.964460 -22.748768 -37.907322 21.273062 -3.763916 -2.538009 -2.527450 -13.901962 43.286458 -26.376270 0.257900 3.267400 9.024200 22.701867 27.588181 4.860380 3.476116 -0.296193 2.217437 6.118167 -20.481321 -1.255302 -0.043300 1.342300 -3.691100 25.924074 9.770249 -24.194742 -10.022768 -0.429018 -10.464185 8.360384 -8.041950 38.693197 0.800100 -2.008400 11.552200 -70.750077 -3.593942 62.286271 100.706932 -57.638228 -76.080609 -0.151951 -2.514660 -42.667345 -7.125000 0.000000 0.000000 37.610463 31.319482 62.030375 -118.845230 53.400047 -89.178696 -1.226177 0.394071 -14.301756 7.125000 0.000000 0.000000 
-0.391555 18.440761 8.336233 -9.590004 -3.708331 9.779644 -22.650118 -37.833022 21.324544 -3.751526 -2.527600 -2.530957 -13.886792 43.164865 -25.858155 0.233900 3.112500 8.592200 22.938913 27.474129 5.093508 3.480728 -0.300838 2.291761 6.151132 -20.535531 -1.586207 -0.031700 1.150000 -3.161600 25.775705 9.652171 -23.915824 -10.109227 -0.429933 -10.321710 9.294571 -8.568442 39.140132 1.031000 -2.133700 11.710700 -70.621650 -4.408575 62.238414 100.373706 -57.622373 -75.804062 -0.159697 -2.520601 -42.680186 -7.125000 0.000000 0.000000 36.539430 29.686115 65.136037 -121.675810 52.630719 -91.436865 -1.045962 0.271490 -14.941559 7.125000 0.000000 0.000000 
-0.397958 18.438136 8.344736 -9.617958 -3.386793 9.544473 -22.473810 -37.463640 21.146604 -3.725220 -2.491186 -2.480350 -13.970898 43.107821 -24.670778 0.157400 2.556700 7.046800 23.102194 27.242894 5.287939 3.482854 -0.308736 2.375973 6.161105 -20.529470 -1.836746 -0.022800 0.975900 -2.682400 25.809973 9.544583 -23.551079 -10.133826 -0.443570 -10.288041 9.765376 -8.993917 39.606770 1.149600 -2.280000 11.888200 -70.637026 -5.131281 62.105028 100.156680 -57.606780 -75.616527 -0.176708 -2.523116 -42.546796 -7.125000 0.000000 0.000000 35.386603 28.072922 68.566412 -123.257526 52.230136 -92.637763 -0.854475 0.158537 -15.228118 7.125000 0.000000 0.000000 
-0.403732 18.434567 8.352819 -9.576098 -3.083322 9.308260 -22.326290 -36.970867 20.877431 -3.698565 -2.444705 -2.397698 -13.976902 42.927974 -23.422408 0.093400 1.970500 5.424300 23.167745 26.988076 5.458513 3.484980 -0.317829 2.450462 6.179140 -20.551026 -2.034608 -0.021600 0.948100 -2.606100 25.861511 9.503172 -23.354875 -10.056921 -0.434254 -10.276492 10.377677 -9.519211 40.216267 1.312100 -2.451600 12.128700 -70.758928 -5.639431 62.017304 100.230337 -57.591203 -75.666928 -0.195038 -2.517236 -42.352595 -7.125000 0.000000 0.000000 34.355932 26.420905 71.992048 -123.337483 52.390179 -92.606424 -0.678388 0.057285 -15.827985 7.125000 0.000000 0.000000 
-0.408771 18.430683 8.361532 -9.565994 -2.829666 9.082395 -22.285237 -36.644789 20.806209 -3.685629 -2.419377 -2.336978 -13.878742 42.654535 -22.750565 0.071900 1.730500 4.761300 23.220303 26.672753 5.584174 3.484828 -0.325498 2.510331 6.173196 -20.521247 -2.128774 -0.025300 1.027800 -2.825300 26.093302 9.538165 -23.301988 -9.983032 -0.430638 -10.177734 11.043711 -9.871823 40.093745 1.537400 -2.582600 12.101700 -70.930571 -5.981205 61.897789 100.561557 -57.569836 -75.929830 -0.199125 -2.508813 -42.235409 -7.125000 0.000000 0.000000 34.143148 24.626695 74.759829 -120.779823 53.460990 -90.464679 -0.561404 -0.038230 -16.168205 7.125000 0.000000 0.000000 
-0.412550 18.426589 8.369510 -9.615492 -2.696729 8.850872 -22.312415 -36.486117 20.929943 -3.685898 -2.403010 -2.259935 -13.726922 42.360604 -22.709182 0.078800 1.811300 4.984300 23.308320 26.321605 5.650397 3.477429 -0.352103 2.626353 6.104774 -20.320777 -2.105889 -0.026600 1.053200 -2.895100 26.283126 9.590662 -23.134217 -9.983764 -0.408477 -10.128515 11.473482 -10.132269 40.404930 1.686900 -2.661900 12.223700 -71.020142 -6.235162 61.779189 100.968303 -57.552061 -76.257061 -0.190161 -2.501146 -42.184572 -7.125000 0.000000 0.000000 33.818574 23.560933 77.255519 -117.246705 54.676090 -87.466939 -0.762258 0.020037 -16.982024 7.125000 0.000000 0.000000 
-0.414124 18.422600 8.374863 -9.639472 -2.730824 8.673520 -22.365016 -36.372263 21.064822 -3.686944 -2.375616 -2.172043 -13.649461 42.224772 -22.776252 0.084300 1.872300 5.152900 23.396253 26.111587 5.703016 3.465873 -0.395986 2.791323 6.024732 -20.078266 -2.066295 -0.022700 0.971600 -2.670800 26.010559 9.593647 -22.973173 -10.066524 -0.345270 -9.972541 11.542083 -10.349593 40.819278 1.706700 -2.762900 12.347000 -70.819558 -6.449258 61.688449 101.423392 -57.548476 -76.613363 -0.180057 -2.494350 -42.220266 -7.125000 0.000000 0.000000 33.808735 23.063064 78.774983 -111.818815 56.046237 -83.015956 -0.785406 -0.039262 -15.753650 7.125000 0.000000 0.000000 
-0.414439 18.419136 8.377173 -9.685152 -2.881000 8.538649 -22.365976 -36.149394 21.149129 -3.682914 -2.365829 -2.145139 -13.728613 42.338378 -22.520395 0.066200 1.660100 4.567200 23.483644 25.983788 5.736790 3.454744 -0.428559 2.909020 5.945672 -19.854157 -1.939094 -0.021500 0.946600 -2.601900 25.857821 9.607946 -22.881563 -10.078996 -0.308226 -9.903997 11.024037 -10.328661 41.514117 1.572700 -2.808000 12.561300 -70.594462 -6.407363 61.583105 101.928716 -57.549847 -77.002821 -0.181582 -2.484552 -42.312400 -7.125000 0.000000 0.000000 34.091613 23.099723 79.479303 -104.743704 57.118852 -77.152067 -1.051810 0.045962 -12.650558 7.125000 0.000000 0.000000 
-0.414859 18.416827 8.377383 -9.726073 -3.174799 8.425192 -22.402834 -35.851776 21.272835 -3.685498 -2.380448 -2.158717 -13.816491 42.495230 -22.449645 0.053900 1.497800 4.119600 23.543645 25.883740 5.757613 3.442706 -0.450206 2.981300 5.840655 -19.576319 -1.676565 -0.026300 1.047600 -2.879800 25.800895 9.722235 -22.994914 -10.044067 -0.257200 -9.852220 10.629269 -10.246427 42.063272 1.480800 -2.805700 12.723400 -70.390899 -6.177843 61.625611 102.437990 -57.544613 -77.400145 -0.182671 -2.471806 -42.403336 -7.125000 0.000000 0.000000 34.515532 23.373281 79.939792 -97.024127 57.446996 -70.660299 -1.365731 0.248239 -10.200253 7.125000 0.000000 0.000000 
